PS_ngait_og_ss9_kinetics.mot
version=1
nRows=13
nColumns=28
inDegrees=yes
endheader
time	1_ground_force_vx	1_ground_force_vy	1_ground_force_vz	1_ground_force_px	1_ground_force_py	1_ground_force_pz	2_ground_force_vx	2_ground_force_vy	2_ground_force_vz	2_ground_force_px	2_ground_force_py	2_ground_force_pz	3_ground_force_vx	3_ground_force_vy	3_ground_force_vz	3_ground_force_px	3_ground_force_py	3_ground_force_pz	1_ground_torque_x	1_ground_torque_y	1_ground_torque_z	2_ground_torque_x	2_ground_torque_y	2_ground_torque_z	3_ground_torque_x	3_ground_torque_y	3_ground_torque_z
  0.00000000	 28.79726557	 45.54097987	 12.16770144	  0.14970309	 -0.00600000	  0.08164235	 96.03406602	831.10707164	-40.22438696	 -0.22296070	 -0.00600000	  0.25641208	  0.00000000	  0.00000000	  0.00000000	  0.90000000	 -0.00600000	  0.20000000	  0.00000000	 -0.28597635	  0.00000000	  0.00000000	 -0.82238817	  0.00000000	  0.00000000	  0.00000000	  0.00000000
  0.00083333	 29.51771002	 51.02846003	 10.69077052	  0.15412915	 -0.00600000	  0.08646932	 96.46933109	830.19588175	-40.05821589	 -0.22296502	 -0.00600000	  0.25639574	  0.00000000	  0.00000000	  0.00000000	  0.90000000	 -0.00600000	  0.20000000	  0.00000000	 -0.27960112	  0.00000000	  0.00000000	 -0.77872030	  0.00000000	  0.00000000	  0.00000000	  0.00000000
  0.00166667	 30.21785572	 56.71183964	  9.23545649	  0.15780569	 -0.00600000	  0.09053143	 96.92751211	829.21516464	-39.87642201	 -0.22295710	 -0.00600000	  0.25637087	  0.00000000	  0.00000000	  0.00000000	  0.90000000	 -0.00600000	  0.20000000	  0.00000000	 -0.28310285	  0.00000000	  0.00000000	 -0.73185645	  0.00000000	  0.00000000	  0.00000000	  0.00000000
  0.00250000	 30.87540518	 62.55194281	  7.84253219	  0.16091100	 -0.00600000	  0.09397763	 97.40631566	828.15788148	-39.68366931	 -0.22292791	 -0.00600000	  0.25633590	  0.00000000	  0.00000000	  0.00000000	  0.90000000	 -0.00600000	  0.20000000	  0.00000000	 -0.29326505	  0.00000000	  0.00000000	 -0.68320453	  0.00000000	  0.00000000	  0.00000000	  0.00000000
  0.00333333	 31.47020636	 68.51320526	  6.53829113	  0.16354776	 -0.00600000	  0.09695039	 97.90411476	827.01907261	-39.48372343	 -0.22287221	 -0.00600000	  0.25629066	  0.00000000	  0.00000000	  0.00000000	  0.90000000	 -0.00600000	  0.20000000	  0.00000000	 -0.30926402	  0.00000000	  0.00000000	 -0.63372063	  0.00000000	  0.00000000	  0.00000000	  0.00000000
  0.00416667	 31.98782019	 74.55996892	  5.33019162	  0.16576991	 -0.00600000	  0.09955716	 98.41988260	825.79633040	-39.27838909	 -0.22278932	 -0.00600000	  0.25623598	  0.00000000	  0.00000000	  0.00000000	  0.90000000	 -0.00600000	  0.20000000	  0.00000000	 -0.33106629	  0.00000000	  0.00000000	 -0.58384240	  0.00000000	  0.00000000	  0.00000000	  0.00000000
  0.00500000	 32.42228400	 80.65475572	  4.20624305	  0.16760653	 -0.00600000	  0.10187152	 98.95250018	824.49078531	-39.06753737	 -0.22268156	 -0.00600000	  0.25617309	  0.00000000	  0.00000000	  0.00000000	  0.90000000	 -0.00600000	  0.20000000	  0.00000000	 -0.35760087	  0.00000000	  0.00000000	 -0.53352571	  0.00000000	  0.00000000	  0.00000000	  0.00000000
  0.00583333	 32.77529978	 86.76039095	  3.14067434	  0.16908127	 -0.00600000	  0.10394157	 99.50006776	823.10648542	-38.85077951	 -0.22255160	 -0.00600000	  0.25610346	  0.00000000	  0.00000000	  0.00000000	  0.90000000	 -0.00600000	  0.20000000	  0.00000000	 -0.38558853	  0.00000000	  0.00000000	 -0.48266388	  0.00000000	  0.00000000	  0.00000000	  0.00000000
  0.00666667	 33.05293120	 92.84409469	  2.10410152	  0.17022497	 -0.00600000	  0.10579733	100.06028786	821.64729138	-38.62915931	 -0.22240127	 -0.00600000	  0.25602903	  0.00000000	  0.00000000	  0.00000000	  0.90000000	 -0.00600000	  0.20000000	  0.00000000	 -0.41038001	  0.00000000	  0.00000000	 -0.43156756	  0.00000000	  0.00000000	  0.00000000	  0.00000000
  0.00750000	 33.26168504	 98.87977967	  1.07188390	  0.17108000	 -0.00600000	  0.10745233	100.63217559	820.11452998	-38.40529924	 -0.22223199	 -0.00600000	  0.25595198	  0.00000000	  0.00000000	  0.00000000	  0.90000000	 -0.00600000	  0.20000000	  0.00000000	 -0.42786602	  0.00000000	  0.00000000	 -0.38109578	  0.00000000	  0.00000000	  0.00000000	  0.00000000
  0.00833333	 33.40421374	104.84815896	  0.02712502	  0.17170230	 -0.00600000	  0.10890580	101.21691241	818.50764882	-38.18212179	 -0.22204530	 -0.00600000	  0.25587412	  0.00000000	  0.00000000	  0.00000000	  0.90000000	 -0.00600000	  0.20000000	  0.00000000	 -0.43565613	  0.00000000	  0.00000000	 -0.33238770	  0.00000000	  0.00000000	  0.00000000	  0.00000000
  0.00916667	 33.47625062	110.73587447	 -1.04035527	  0.17216296	 -0.00600000	  0.11015799	101.81609443	816.82674096	-37.96139000	 -0.22184293	 -0.00600000	  0.25579642	  0.00000000	  0.00000000	  0.00000000	  0.90000000	 -0.00600000	  0.20000000	  0.00000000	 -0.43323852	  0.00000000	  0.00000000	 -0.28638051	  0.00000000	  0.00000000	  0.00000000	  0.00000000
  0.01000000	 33.46683739	116.53371076	 -2.13651936	  0.17253933	 -0.00600000	  0.11122221	102.42956273	815.07468620	-37.74331073	 -0.22162675	 -0.00600000	  0.25571914	  0.00000000	  0.00000000	  0.00000000	  0.90000000	 -0.00600000	  0.20000000	  0.00000000	 -0.42117051	  0.00000000	  0.00000000	 -0.24355495	  0.00000000	  0.00000000	  0.00000000	  0.00000000
